<svg xmlns="http://www.w3.org/2000/svg" width="58" height="58" viewBox="0 0 58 58">
    <g fill="none">
        <path fill="#CCD9EF" d="M28.987 57.975c6.62 0 12.72-2.22 17.6-5.955l-2.875-2.875c-.306-.306-.371-.76-.198-1.132l-2.249-2.248c-.282.2-.571.386-.867.556l-1.153-1.153c-7.398 4.697-17.342 3.823-23.79-2.626-7.463-7.462-7.463-19.604 0-27.067 2.345-2.345 5.153-3.953 8.133-4.824.112-.919.612-1.882.472-3.21-.275-2.628 2.63-5.327 5.376-4.792 2.745.535 4.083.02 5.926 4.033.873 1.9.705 3.367.287 4.386 2.508.927 4.86 2.396 6.872 4.407 7.144 7.144 7.447 18.576.913 26.086l.862.862c-.169.293-.352.58-.55.859l2.25 2.25c.133-.063.278-.095.423-.095.225 0 .449.075.632.224.026.022.052.045.076.07l3.043 3.042c4.84-5.18 7.805-12.136 7.805-19.786C57.975 12.978 44.997 0 28.987 0 12.978 0 0 12.978 0 28.987c0 16.01 12.978 28.988 28.987 28.988z"/>
        <path fill="#1F2B7B" d="M45.178 46.263l.533-.533c.074-.073.155-.133.243-.179l.041-.019-2.25-2.25c.199-.28.382-.566.55-.86l-.86-.86c-.292.334-.596.661-.914.98-1.014 1.013-2.114 1.888-3.276 2.626l1.153 1.153c.296-.17.585-.356.867-.556l2.249 2.248c.048-.102.113-.199.198-.284l1.466-1.466z"/>
        <path fill="#DE1B50" d="M46.42 45.437c.223 0 .448.075.631.224-.183-.15-.407-.224-.632-.224zM45.178 46.263l-1.466 1.466c-.085.085-.15.182-.198.284-.173.371-.108.826.198 1.132l2.875 2.875c.817-.626 1.602-1.293 2.347-2l-3.756-3.757z"/>
        <path fill="#A8003A" d="M47.051 45.661c-.183-.15-.408-.224-.632-.224-.145 0-.29.032-.424.095-.014.007-.028.012-.041.02-.088.045-.17.105-.243.178l-.533.533 3.756 3.757c.425-.403.836-.82 1.236-1.247l-3.043-3.043c-.024-.024-.05-.047-.076-.069z"/>
        <path fill="#CCD9EF" d="M33.319 15.914c-.159.167-.33.317-.516.45v.881c.433.19.808.434 1.134.72 1.755.414 6.398 2.238 9.521 10.142-.21-3.409-1.614-6.757-4.213-9.356-.4-.399-.818-.771-1.253-1.117-1.47-.844-3.05-1.417-4.673-1.72zM23.01 17.707c-1.072.63-2.084 1.4-3.004 2.32-2.118 2.12-3.463 4.716-4.042 7.443 3.153-7.132 7.842-8.81 9.243-9.161-.811.072-1.582-.16-2.197-.602z"/>
        <path fill="#ECF0F9" d="M37.992 17.634c-1.274-1.012-2.694-1.794-4.208-2.323-.138.22-.294.421-.465.603 1.622.303 3.203.876 4.673 1.72zM20.006 20.028c.92-.92 1.932-1.692 3.004-2.321-.477-.344-.86-.815-1.097-1.37-1.153.646-2.224 1.454-3.183 2.414-3.37 3.37-4.732 7.998-4.086 12.385.392-1.359.838-2.576 1.32-3.666.579-2.727 1.924-5.324 4.042-7.442z"/>
        <path fill="#586BB2" d="M42.52 42.542c.32-.319.623-.646.914-.98 6.534-7.51 6.23-18.943-.913-26.087-2.012-2.011-4.364-3.48-6.872-4.407-.348.847-.866 1.383-1.108 1.6-.06 1.058-.32 1.946-.757 2.643 1.514.53 2.934 1.31 4.208 2.323.435.346.854.718 1.253 1.117 2.599 2.6 4.003 5.947 4.213 9.356.211 3.416-.777 6.893-2.965 9.738-.108.141-.22.28-.335.418-.222.268-.455.53-.7.785-.07.073-.14.146-.213.219-.25.25-.508.49-.773.72l-.202.17c-.332.278-.675.54-1.028.784-1.452 1.01-3.067 1.738-4.777 2.157-1.124.275-2.29.417-3.478.417-1.184 0-2.347-.141-3.47-.415-.789-.193-1.558-.452-2.3-.774-1.654-.717-3.175-1.747-4.487-3.06-2.287-2.286-3.649-5.152-4.086-8.13-.646-4.387.716-9.015 4.086-12.385.96-.96 2.03-1.768 3.183-2.413-.125-.293-.208-.608-.243-.94-.159-1.508.735-2.883 2.088-3.396l-.002-.02c-.005-.046-.008-.09-.01-.132-.182-.41-.206-.8-.158-1.2-2.98.872-5.788 2.48-8.134 4.825-7.462 7.463-7.462 19.605 0 27.067 6.45 6.449 16.393 7.323 23.79 2.626 1.163-.738 2.263-1.613 3.277-2.626zm-22.945 1.401c-.162.175-.43.209-.628.076-.963-.645-1.878-1.391-2.728-2.241-1.584-1.584-2.837-3.412-3.724-5.4-.107-.24-.012-.522.222-.641l.01-.005c.25-.127.556-.023.67.234.839 1.882 2.023 3.612 3.522 5.111.803.803 1.667 1.51 2.577 2.118.25.168.292.52.086.74l-.007.008zm7.302 2.43c0 .3-.27.53-.567.485-1.53-.228-3.035-.652-4.476-1.271-.255-.11-.376-.407-.257-.659l.004-.009c.113-.239.392-.352.635-.248 1.364.588 2.789.988 4.237 1.204.242.036.424.24.424.486v.011z"/>
        <path fill="#CCD9EF" d="M26.453 45.875c-1.448-.216-2.873-.616-4.237-1.204-.243-.104-.522.009-.635.248l-.004.01c-.119.25.002.548.257.658 1.44.62 2.946 1.043 4.476 1.271.298.045.567-.184.567-.486v-.011c0-.245-.182-.45-.424-.486zM19.496 43.195c-.91-.609-1.774-1.315-2.577-2.118-1.499-1.499-2.683-3.23-3.522-5.111-.114-.257-.42-.361-.67-.234l-.01.005c-.234.119-.329.401-.222.64.887 1.989 2.14 3.817 3.724 5.4.85.85 1.765 1.597 2.728 2.242.198.133.466.099.628-.076l.007-.007c.206-.22.164-.573-.086-.74z"/>
        <path fill="#FFF" d="M24.178 20.521c-.022-.006-.044-.01-.065-.011-.056-.003-.11.013-.169.05-.513.323-.923 1.793-1.061 2.644-.354 2.27-.344 3.76-.183 4.739.5-.853 1.047-2.21 1.552-4.366.321-1.139.516-2.882-.074-3.056zM33.937 17.966c1.838 1.618 2.113 4.624 2.347 7.197.105 1.155.206 2.265.436 3.133.028-.002.056-.004.085-.004.628 0 1.138.51 1.138 1.137 0 .629-.51 1.138-1.138 1.138-.629 0-1.138-.51-1.138-1.138 0-.359.167-.678.427-.887-.26-.94-.367-2.105-.477-3.319-.259-2.839-.544-5.973-2.814-7.214v.213c0 .073-.005.144-.01.216l.228 12.693h1.717c.294 0 .532.238.532.532v4.29c.097-.168.164-.336.19-.497.183-.003.476.145.519.387.17.955-.489 1.781-.489 1.781s.996-.203 2.037-.371l2.843-9.793.042 10.388.081-.003c2.188-2.845 3.176-6.322 2.965-9.738-3.123-7.904-7.766-9.728-9.52-10.141z"/>
        <path fill="#ECF0F9" d="M22.076 36.763l-.938-4.89v4.41c.311.175.624.334.938.48zM23.217 42.326c.742.322 1.511.58 2.3.774v-.583c-.746-.041-1.518-.104-2.3-.191zM39.458 39.048c.245-.255.478-.517.7-.785-.42.144-1.105.385-2.234.811 0 0 .837-.042 1.534-.026zM38.27 40.157l.202-.17c-.406.11-.712.182-.712.182s.22-.009.51-.012zM39.866 37.144c-.07.424-2.331 1.149-2.331 1.149s1.956-.4 2.877-.445L40.37 27.46l-2.843 9.793c1.159-.188 2.374-.333 2.339-.11z"/>
        <path fill="#DE1B50" d="M30.026 21c-.096 0-.191-.006-.285-.015l-.037-.006c-.08-.01-.16-.02-.239-.037-.013-.002-.026-.007-.039-.01-.077-.017-.153-.035-.228-.058l-.02-.008c-.08-.026-.16-.054-.236-.087l-.003-.001c-.332-.141-.63-.345-.881-.597-.5-.503-.809-1.194-.809-1.959v-.227h-.002l.002.366.036 12.77h5.736l-.229-12.693c-.046.604-.285 1.153-.656 1.587-.509.595-1.265.974-2.11.974z"/>
        <path fill="#1F2B7B" d="M23.01 17.707c.615.443 1.386.674 2.197.602l.052-.004c.07-.008.139-.018.207-.03.512-.422 1.107-.756 1.783-.998V16.1c-.747-.557-1.364-1.342-1.747-2.347-.52-.075-1.591-.396-1.744-1.751-1.353.513-2.247 1.888-2.088 3.395.035.333.118.648.243.94.236.555.62 1.026 1.097 1.37zM23.746 11.85c-.057-1.098.702-1.291 1.226-1.296l-.002-.022c.112-.107.867-.875.804-2.174-.1-2.087 1.118-3.066 1.118-3.066s1.897 1.917 4.366 1.835c1.545-.05 2.39.573 2.847 1.193.19.895.292 1.865.393 2.823.057.541.07 1.05.043 1.526.242-.218.76-.754 1.108-1.6.418-1.02.586-2.487-.287-4.387-1.843-4.013-3.181-3.498-5.926-4.033-2.745-.535-5.651 2.164-5.376 4.791.14 1.329-.36 2.292-.472 3.21-.048.4-.024.79.158 1.2z"/>
        <path fill="#002D74" d="M32.803 18.01c2.27 1.24 2.555 4.374 2.814 7.213.11 1.214.217 2.379.477 3.319.174-.14.39-.229.626-.246-.23-.868-.331-1.978-.436-3.133-.234-2.573-.509-5.58-2.347-7.197-.326-.287-.7-.531-1.134-.72v.763zM27.25 17.277c-.677.242-1.272.576-1.784.998-.18.15-.351.309-.511.48-.324.348-.58.717-.785 1.087-.2-.015-.4.036-.583.151-.932.587-1.324 2.848-1.365 3.106-.385 2.464-.4 4.334-.048 5.59-.307.355-.578.527-.786.61-.243.096-.445.087-.585.056.03.065.047.138.043.215-.01.19-.139.347-.31.404.25.079.624.126 1.069-.041.288-.109.567-.29.833-.545.142.282.313.515.512.7.363.333.742.425 1.006.441-.086-.088-.137-.209-.13-.34.007-.133.072-.248.167-.326-.14-.01-.364-.061-.589-.268-.153-.142-.33-.377-.478-.769.765-1.042 1.426-2.742 1.975-5.082.142-.504.731-2.8-.116-3.622.177-.314.393-.625.665-.916.485-.519 1.086-.922 1.797-1.21l.002-.001v-.718zm-2.998 6.3c-.505 2.156-1.052 3.513-1.552 4.366-.161-.978-.17-2.469.183-4.739.138-.85.548-2.321 1.061-2.644.06-.037.113-.053.169-.05.021 0 .043.005.065.011.59.174.395 1.917.074 3.056z"/>
        <path fill="#1B2C1F" d="M20.846 29.57c.004-.077-.013-.15-.043-.215-.069-.147-.212-.254-.385-.263-.25-.014-.464.178-.478.428-.014.25.178.464.428.478.059.003.115-.006.168-.024.171-.057.3-.213.31-.404zM35.667 29.43c0 .628.51 1.137 1.138 1.137.628 0 1.138-.51 1.138-1.138 0-.628-.51-1.137-1.138-1.137-.029 0-.057.002-.085.004-.236.017-.452.106-.626.246-.26.209-.427.528-.427.887zm1.138-.596c.329 0 .595.267.595.595 0 .33-.266.596-.595.596-.329 0-.595-.267-.595-.596 0-.328.266-.595.595-.595z"/>
        <path fill="#E9E8E6" d="M36.21 29.43c0 .328.266.595.595.595.329 0 .595-.267.595-.596 0-.328-.266-.595-.595-.595-.329 0-.595.267-.595.595z"/>
        <path fill="#1B2C1F" d="M23.826 30.188c-.007.132.044.253.13.341.076.078.18.13.298.137.25.014.464-.178.478-.428.014-.25-.178-.464-.428-.478-.118-.006-.227.034-.311.103-.095.078-.16.193-.167.325z"/>
        <path fill="#F69679" d="M29.198 20.881c.075.028.151.05.228.071-.077-.02-.153-.043-.228-.07zM29.465 20.952c.078.02.158.033.239.044-.08-.01-.16-.024-.239-.044zM30.026 21c.845 0 1.601-.38 2.11-.975-.51.595-1.265.974-2.11.974-.096 0-.191-.005-.285-.014.094.01.189.014.285.014zM28.939 20.778c-.332-.141-.63-.345-.881-.597.25.252.55.456.881.597zM28.942 20.784c.077.04.155.074.235.105-.08-.031-.158-.065-.235-.105z"/>
        <path fill="#F69679" d="M27.25 17.995v.227c0 .765.308 1.456.808 1.959l4.745-3.456v-.361c-.546.392-1.207.635-1.968.715-1.253.132-2.544-.203-3.586-.98v1.896z"/>
        <path fill="#FABCA3" d="M28.058 20.18c.25.253.55.457.881.598l.003.001c.077.033.155.061.235.087l.021.008c.075.023.151.041.228.058.013.003.026.008.04.01.077.016.157.028.238.037l.037.006c.094.01.189.014.285.014.845 0 1.6-.379 2.11-.974.371-.434.61-.983.656-1.587.006-.072.011-.143.011-.216V16.725l-4.745 3.456zM34.498 11.143c-.1-.958-.203-1.928-.393-2.823-.458-.62-1.302-1.244-2.847-1.193-2.47.082-4.366-1.835-4.366-1.835s-1.219.979-1.118 3.066c.063 1.3-.692 2.067-.804 2.174l.002.022c-.524.005-1.283.198-1.226 1.296.002.043.005.086.01.132l.002.02c.153 1.355 1.224 1.676 1.744 1.751.383 1.005 1 1.79 1.747 2.347 1.042.776 2.333 1.11 3.586.98.76-.08 1.422-.324 1.968-.716.185-.133.357-.283.516-.45.171-.182.327-.382.465-.603.436-.697.697-1.585.757-2.642.027-.476.014-.985-.043-1.526z"/>
        <path fill="#CCD9EF" d="M26.05 31.13c-.294 0-.532.239-.532.533v6.234c1.664.344 3.213.406 4.44.364v.308c.121-.004.24-.008.355-.014v.001c1.423-.07 2.33-.267 2.33-.267s1.98-1.204 2.627-2.336v-4.29c0-.294-.238-.532-.532-.532H26.05zM32.872 42.571s-.783-.264-1.334-.572c-.464.059-.995.118-1.58.17v.307c-1.234.11-2.773.131-4.44.04v.584c1.122.274 2.285.415 3.47.415 1.187 0 2.353-.142 3.477-.417-.457-.155-.796-.286-.863-.356-.242-.254 1.27-.17 1.27-.17z"/>
        <path fill="#F69679" d="M33.593 41.68s-.776.157-2.055.319c.551.308 1.334.572 1.334.572s-1.512-.083-1.27.171c.067.07.406.201.863.356 1.71-.42 3.325-1.148 4.777-2.157-1.685.362-3.649.739-3.649.739z"/>
        <path fill="#FABCA3" d="M37.535 38.293s2.262-.725 2.33-1.15c.036-.223-1.18-.078-2.338.11-1.041.168-2.037.371-2.037.371s.66-.826.489-1.78c-.043-.243-.336-.391-.519-.388-.026.161-.093.329-.19.497-.646 1.132-2.627 2.336-2.627 2.336s-.907.198-2.33.267v3.58l-.355.033c.585-.052 1.116-.111 1.58-.17 1.279-.162 2.055-.32 2.055-.32s1.964-.376 3.65-.738c.352-.245.695-.506 1.027-.784-.29.003-.51.012-.51.012s.306-.071.712-.183c.265-.23.523-.47.773-.72.072-.072.143-.145.213-.218-.697-.016-1.534.026-1.534.026 1.129-.426 1.813-.667 2.234-.81.114-.139.227-.278.335-.42l-.08.004c-.922.044-2.878.445-2.878.445z"/>
        <path fill="#F69679" d="M29.958 38.569v3.6c.12-.01.24-.022.355-.033v-3.58c-.115.005-.234.01-.355.013z"/>
        <path fill="#FFF" d="M29.958 42.476V38.26c-1.227.042-2.776-.02-4.44-.364v-6.234c0-.294.238-.532.532-.532h1.235l-.036-12.77-.002-.365c-.71.288-1.312.691-1.797 1.21-.272.291-.488.602-.665.916.847.822.258 3.118.116 3.622-.549 2.34-1.21 4.04-1.975 5.082.149.392.325.627.478.769.225.207.448.259.589.268.084-.07.193-.11.31-.103.251.014.443.228.429.478-.014.25-.228.442-.478.428-.118-.007-.222-.059-.298-.137-.264-.016-.643-.108-1.006-.442-.2-.184-.37-.417-.512-.699-.266.254-.545.436-.833.545-.445.167-.818.12-1.069.041-.053.018-.11.027-.168.024-.25-.014-.442-.228-.428-.478.014-.25.228-.442.478-.428.173.01.316.116.385.263.14.031.342.04.585-.057.208-.082.48-.254.786-.608-.352-1.257-.337-3.127.048-5.591.041-.258.433-2.519 1.365-3.106.184-.115.382-.166.583-.15.204-.371.461-.74.785-1.088.16-.171.33-.33.51-.48-.067.012-.136.022-.206.03l-.052.004c-1.401.351-6.09 2.03-9.243 9.16-.482 1.09-.928 2.308-1.32 3.667.437 2.978 1.8 5.844 4.086 8.13 1.312 1.313 2.833 2.343 4.487 3.06.782.087 1.554.15 2.3.19 1.668.091 3.207.07 4.441-.04zm-7.882-5.713c-.314-.146-.627-.305-.938-.48v-4.41l.938 4.89z"/>
    </g>
</svg>
