<svg xmlns="http://www.w3.org/2000/svg" width="58" height="58" viewBox="0 0 58 58">
    <g fill="none" fill-rule="evenodd">
        <circle cx="29" cy="29" r="29" fill="#CCD9EF"/>
        <g fill-rule="nonzero">
            <path fill="#CCD9EF" d="M23.368 7.32v10.16c2.895-2.703 7.431-2.652 10.254.17.502.503.911 1.062 1.238 1.654l2.878-2.878c.358-.358.939-.358 1.297 0l18.21 18.21c.336-1.758.519-3.57.519-5.426C57.764 13.344 44.902.482 29.036.482c-3.011 0-5.913.466-8.64 1.325 1.789 1.18 2.972 3.208 2.972 5.512zM20.74 43.933l-4.606-4.606-.1-.1c-.303-.303-.303-.794 0-1.097l.1-.1 3.216-3.216c-.793.338-1.666.526-2.582.526h-.774c-.215 0-.426-.012-.635-.032h-.002c-.206-.02-.408-.051-.607-.09h-.008c-3.045-.586-5.348-3.263-5.348-6.48V8.255C3.805 13.497.308 20.943.308 29.21c0 15.866 12.862 28.727 28.728 28.727 1.786 0 3.53-.17 5.226-.483L20.74 43.934z" opacity=".5"/>
            <path fill="#CCD9EF" d="M23.368 28.737c0 .918-.188 1.792-.527 2.586l1.991-1.99c-.52-.288-1.011-.646-1.464-1.068v.472z"/>
            <path fill="#586BB2" d="M20.09 18.028V7.32c0-3.217-2.303-5.895-5.348-6.48.203-.04.408-.07.617-.09-3.346.32-5.965 3.138-5.965 6.57v10.709H20.09z"/>
            <path fill="#FFF" d="M15.357 35.308c-.206-.021-.408-.051-.607-.09.2.039.401.07.607.09zM20.09 28.737V18.028H9.395v10.71c0 3.217 2.303 5.894 5.349 6.48 3.044-.586 5.348-3.264 5.348-6.48z"/>
            <path fill="#1F2B7B" d="M20.09 7.32v10.708h2.748c.111-.127.22-.255.341-.377.06-.06.127-.112.189-.17V7.319c0-2.304-1.183-4.331-2.972-5.512-1.042-.688-2.287-1.09-3.628-1.09h-.774c-.214 0-.426.01-.635.031-.209.021-.414.052-.617.09 3.045.586 5.349 3.264 5.349 6.481z"/>
            <path fill="#586BB2" d="M23.368 28.737v-.472c.453.422.944.78 1.464 1.067l.648-.647c-.366-.184-.717-.406-1.05-.664l-1.251.073c-2.762-2.763-2.87-7.165-.34-10.066H20.09v10.71c0 3.216-2.304 5.894-5.348 6.48h.007c.199.039.4.069.607.09.211.02.422.032.637.032h.774c.916 0 1.789-.188 2.582-.526l3.491-3.49c.339-.795.527-1.669.527-2.587z" opacity=".6"/>
            <path fill="#FFF" d="M23.179 28.094l.07-1.247.003-.003c-1.974-2.552-1.795-6.232.547-8.573 2.341-2.342 6.02-2.52 8.573-.547l.003-.003 1.247-.07c-2.823-2.823-7.359-2.874-10.254-.17-.062.058-.128.11-.189.17-.121.122-.23.25-.34.377-2.53 2.9-2.422 7.303.34 10.066z"/>
            <path fill="#A9C0E4" d="M33.55 18.902c.257.333.479.684.663 1.05l.647-.648c-.327-.592-.736-1.15-1.238-1.653l-.07 1.247-.003.004z"/>
            <path fill="#ECF0F9" d="M32.372 17.724c-2.552-1.973-6.232-1.795-8.573.547-2.342 2.341-2.52 6.02-.547 8.573l9.12-9.12zM24.43 28.021c.333.258.684.48 1.05.664l8.733-8.733c-.184-.366-.406-.717-.664-1.05l-9.12 9.119z"/>
            <path fill="#586BB2" d="M32.372 17.724L23.252 26.844 23.249 26.847 23.179 28.094 33.622 17.651 32.375 17.721z"/>
            <path fill="#FFF" d="M23.179 28.094L24.426 28.024 24.43 28.021 33.549 18.902 33.552 18.898 33.622 17.651z"/>
            <path fill="#DE1B50" d="M37.738 16.426l-2.878 2.878-.647.648-8.733 8.733-.648.647-1.99 1.991-3.492 3.491-3.216 3.216 1.296-1.296 21.744 19.357c9.222-3.48 16.18-11.566 18.07-21.455l-18.21-18.21c-.357-.358-.938-.358-1.296 0zm-4.64 12.295c.477-.478 1.256-.478 1.735 0 .481.482.482 1.262.004 1.74-.478.48-1.258.477-1.74-.004-.478-.479-.478-1.257 0-1.736zm-4.73 6.342l-.752-.751.964-.965.401.401-.57.57.351.35c.593.594 1.448.703 2.041.11s.534-1.498-.06-2.09l-.35-.352-.563.563-.4-.4.964-.965.751.752c.397.39.63.959.633 1.513.002.442-.089.756-.343 1.11l1.146 1.147c.9.9 2.344.76 3.435-.33 1.063-1.063 1.166-2.443.252-3.357l-1.146-1.146.447-.448 1.147 1.147c1.132 1.132 1.007 2.901-.298 4.206-1.329 1.328-3.17 1.49-4.284.375l-1.14-1.14c-.825.632-1.868.459-2.626-.3zm19.298-2.533l4.03 4.03c.807.807.807 2.114 0 2.92L39.188 51.99c-.806.806-2.114.806-2.92 0l-4.03-4.03c-.806-.807-.806-2.114 0-2.92L44.746 32.53c.806-.806 2.114-.806 2.92 0zM16.134 39.327L20.74 43.933z"/>
            <path fill="#DE1B50" d="M34.44 30.064c.258-.259.256-.683-.006-.945-.256-.257-.676-.254-.935.005s-.259.681 0 .94c.26.26.681.26.94 0z"/>
            <path fill="#A71D3D" d="M16.134 38.03l-.1.1c-.303.303-.303.794 0 1.097l.1.1 4.606 4.606 13.522 13.521c1.694-.311 3.336-.768 4.912-1.363L17.43 36.734l-1.296 1.296z"/>
            <path fill="#FFF" d="M32.238 47.959l4.03 4.03c.806.806 2.114.806 2.92 0L51.696 39.48c.807-.806.807-2.113 0-2.92l-4.03-4.03c-.806-.806-2.114-.806-2.92 0L32.238 45.038c-.806.807-.806 2.114 0 2.92zM49.383 37.49c.03.03.03.077 0 .106l-12.08 12.08c-.028.029-.076.029-.105 0-.03-.03-.03-.077 0-.106l12.08-12.08c.029-.03.076-.03.105 0zm-1.566-1.46c.03-.03.077-.03.106 0 .03.03.03.077 0 .106l-12.08 12.08c-.029.029-.076.029-.105 0-.03-.03-.03-.077 0-.107l12.08-12.08zm-13.54 10.62l12.08-12.08c.03-.03.077-.03.106 0 .03.029.03.076 0 .106l-12.08 12.08c-.029.029-.076.029-.106 0-.029-.03-.029-.078 0-.107z"/>
            <path fill="#1F2B7B" d="M34.383 46.755l12.08-12.08c.03-.029.03-.076 0-.105-.03-.03-.077-.03-.106 0l-12.08 12.08c-.029.028-.029.076 0 .105.03.03.077.03.106 0zM35.738 48.215c.029.03.076.03.106 0l12.08-12.08c.028-.028.028-.076 0-.105-.03-.03-.078-.03-.107 0l-12.08 12.08c-.029.029-.029.076 0 .105zM37.198 49.676c.03.029.077.029.106 0l12.08-12.08c.029-.03.029-.077 0-.106-.03-.03-.077-.03-.107 0l-12.08 12.08c-.029.029-.029.076 0 .106z"/>
            <path fill="#FFF" d="M36.418 36.128c1.305-1.305 1.43-3.074.298-4.206l-1.147-1.147-.447.448 1.146 1.146c.914.914.81 2.294-.252 3.357-1.09 1.09-2.535 1.23-3.435.33l-1.146-1.146c.254-.355.345-.669.343-1.11-.002-.555-.236-1.124-.633-1.514l-.751-.752-.965.964.401.401.563-.563.35.351c.594.593.653 1.498.06 2.09-.593.594-1.448.485-2.04-.108l-.352-.351.57-.57-.4-.4-.965.964.752.751c.758.759 1.8.932 2.626.3l1.14 1.14c1.114 1.115 2.955.953 4.284-.375zM34.837 30.462c.478-.479.477-1.26-.004-1.74-.479-.48-1.258-.479-1.736 0-.478.478-.478 1.256 0 1.735.482.481 1.262.483 1.74.005zM33.5 29.124c.26-.26.679-.262.935-.005.262.262.264.686.006.945-.26.26-.682.26-.94 0-.26-.259-.26-.681 0-.94z"/>
        </g>
    </g>
</svg>
