<svg xmlns="http://www.w3.org/2000/svg" width="58" height="58" viewBox="0 0 58 58">
    <defs>
        <linearGradient id="prefix__a" x1="0%" x2="99.881%" y1="0%" y2="71.4%">
            <stop offset="0%" stop-color="#3F439E"/>
            <stop offset="100%" stop-color="#363A96"/>
        </linearGradient>
    </defs>
    <g fill="none" fill-rule="evenodd">
        <circle cx="29" cy="29" r="29" fill="url(#prefix__a)" fill-opacity=".15"/>
        <g fill-rule="nonzero">
            <path fill="#CCD9EF" d="M5.131 13.003h17.433c-.443-.932-.695-1.972-.695-3.073 0-3.958 3.209-7.166 7.167-7.166 3.958 0 7.167 3.208 7.167 7.166 0 2.164-.96 4.102-2.476 5.416l-4.695 4.695-.03-.03v5.108h1.793v15.183c2.203-6.32 5.936-8.111 7.437-8.586l.024.523c.058-.072.117-.143.182-.213.374-.401.828-.718 1.352-.958v-.02l.006-.004v-2.21c-.688-.593-1.218-1.415-1.472-2.446-.479-.19-1.108-.634-1.108-1.65 0-.91.505-1.14.955-1.165v-.017l-.016.014s-1.205-5.844 4.228-5.844c3.893 0 5.031 2.985 5.363 4.676.12.61-.391 1.164-1.009 1.097l-.146-.018.003.09c.477-.014 1.094.16 1.094 1.167 0 1.081-.71 1.513-1.196 1.683-.239 1.386-.838 2.393-1.715 2.967V31.08c.687.411 1.15 1.029 1.471 1.756l.058-1.01c1.48.392 6.055 2.25 8.194 10.404 2.08-3.976 3.264-8.496 3.264-13.295C57.764 13.069 44.902.207 29.036.207c-9.971 0-18.753 5.082-23.905 12.796z" opacity=".1"/>
            <path fill="#E0E8F5" d="M28.634 20.375c.034 0 .067.005.102.005 5.072 0 9.183-4.111 9.183-9.183s-4.111-9.183-9.183-9.183-9.183 4.111-9.183 9.183c0 4.86 3.777 8.827 8.554 9.152h.527v.026z"/>
            <path fill="#E0004D" d="M29.002 25.119V20.01l-4.72-4.72c-.214-.19-.417-.393-.607-.607l-.035-.035.002-.003c-.43-.492-.793-1.046-1.078-1.643H.37v12.116h28.633zm-18.514-9.68h8.394v8.394h-8.394V15.44z"/>
            <path fill="#ECF0F9" d="M29.002 13.003h-.177c.059.004.117.008.177.009v-.01zM18.882 15.44h-8.394v8.393h8.394V15.44zm-2.748 6.143c-.138.022-.27.033-.396.033-.133 0-.267-.011-.4-.033V19.9h-1.305v1.684c-.137.022-.27.033-.395.033-.134 0-.268-.011-.401-.033V17.69c.133-.022.265-.033.395-.033s.264.011.4.033v1.527h1.306V17.69c.133-.022.265-.033.395-.033s.263.011.4.033v3.893z"/>
            <path fill="#586BB2" d="M15.338 17.69v1.527h-1.305V17.69c-.137-.022-.271-.033-.401-.033s-.262.011-.395.033v3.893c.133.022.267.033.4.033.127 0 .259-.011.396-.033V19.9h1.305v1.684c.133.022.267.033.4.033.127 0 .258-.011.396-.033V17.69c-.138-.022-.271-.033-.401-.033s-.262.011-.395.033z"/>
            <path fill="#FFF" d="M29.09 52.184c0-5.13.692-8.98 1.705-11.882V25.119H.309v3.816c0 .361.013.719.027 1.077v-3.337h7.743v5.178H.455c.012.114.03.226.043.34h28.505v.03h.032v6.025h-8.053v-5.311h-.584v5.311H8.663v-5.311H8.08v5.311H1.861c.039.114.075.228.115.34h27.027v.03h.032v6.026h-8.053V39.3h-.584v5.344H8.663V39.3H8.08v5.344H4.99c.073.113.142.229.218.34h23.796v.03h.032v6.026h-8.053v-5.255h-.584v5.255H10.69c.14.116.284.227.426.34h17.887v.03h.032v6.025h-3.558c1.167.144 2.353.227 3.559.227.397 0 .79-.013 1.182-.03-.665-1.56-1.128-3.385-1.128-5.448zM8.663 31.853v-5.178h11.735v5.178H8.663zm12.319 0v-5.178h8.053v5.178h-8.053z"/>
            <path fill="#586BB2" d="M20.982 26.675H29.035V31.853H20.982zM20.982 32.937L20.982 38.248 29.035 38.248 29.035 32.222 29.003 32.222 29.003 32.937zM8.08 32.937H.591c.256 1.832.685 3.607 1.269 5.311h6.218v-5.311zM8.663 39.3H20.398V44.644H8.663zM20.982 39.3L20.982 44.644 29.035 44.644 29.035 38.618 29.003 38.618 29.003 39.3zM20.398 45.785H8.663v3.401c.646.65 1.322 1.268 2.027 1.854h9.708v-5.255zM8.08 39.3H2.243c.73 1.886 1.652 3.675 2.744 5.344H8.08V39.3zM8.08 45.785H5.774c.71.978 1.48 1.91 2.304 2.789v-2.789zM20.398 52.15h-8.277c2.487 1.815 5.274 3.243 8.277 4.189v-4.19zM8.663 32.937H20.398V38.248999999999995H8.663zM8.663 26.675H20.398V31.853H8.663zM8.08 26.675H.335v3.337c.022.618.058 1.233.12 1.84h7.623v-5.177zM29.035 57.435V51.41h-.032v.74h-8.021v4.36c1.454.425 2.955.736 4.495.926h3.558zM29.003 45.785L20.982 45.785 20.982 51.04 29.035 51.04 29.035 45.014 29.003 45.014z"/>
            <path fill="#FFF" d="M20.982 52.15h-.584v4.189c.193.06.39.114.584.17v-4.36zM8.663 45.785H8.08v2.789c.193.206.385.412.584.612v-3.4z"/>
            <path fill="#586BB2" d="M20.982 32.222H29.003V33.222H20.982z"/>
            <path fill="#878787" d="M20.982 32.222H29.003V33.222H20.982z" opacity=".5"/>
            <path fill="#586BB2" d="M8.663 32.222H20.398V33.222H8.663z"/>
            <path fill="#878787" d="M8.663 32.222H20.398V33.222H8.663z" opacity=".5"/>
            <path fill="#586BB2" d="M8.08 32.222H.5c.027.24.058.478.091.715h7.487v-.715z"/>
            <path fill="#878787" d="M8.08 32.222H.5c.027.24.058.478.091.715h7.487v-.715z" opacity=".5"/>
            <path fill="#FFF" d="M8.08 32.937h.583v-.715h11.735v.715h.584v-.715h8.02v-.029H.499l.003.03H8.08v.714z"/>
            <path fill="#878787" d="M11.582 32.744h.584v-.715H23.9v.715h.583v-.715h8.021V32H4l.004.03h7.578v.714z" opacity=".5"/>
            <path fill="#586BB2" d="M20.982 38.618H29.003V39.618H20.982z"/>
            <path fill="#878787" d="M20.982 38.618H29.003V39.618H20.982z" opacity=".5"/>
            <path fill="#586BB2" d="M8.08 38.618H1.985c.082.23.17.456.258.682h5.835v-.682z"/>
            <path fill="#878787" d="M8.08 38.618H1.985c.082.23.17.456.258.682h5.835v-.682z" opacity=".5"/>
            <path fill="#586BB2" d="M8.663 38.618H20.398V39.618H8.663z"/>
            <path fill="#878787" d="M8.663 38.618H20.398V39.618H8.663z" opacity=".5"/>
            <path fill="#FFF" d="M8.08 39.3h.583v-.682h11.735v.682h.584v-.682h8.02v-.03H1.977l.01.03h6.093v.682z"/>
            <path fill="#878787" d="M8.08 39.3h.583v-.682h11.735v.682h.584v-.682h8.02v-.03H1.977l.01.03h6.093v.682z" opacity=".5"/>
            <path fill="#586BB2" d="M20.982 45.014H29.003V46.014H20.982z"/>
            <path fill="#878787" d="M20.982 45.014H29.003V46.014H20.982z" opacity=".5"/>
            <path fill="#586BB2" d="M8.663 45.014H20.398V46.014H8.663z"/>
            <path fill="#878787" d="M8.663 45.014H20.398V46.014H8.663z" opacity=".5"/>
            <path fill="#586BB2" d="M8.08 45.014H5.226c.177.261.363.516.548.771H8.08v-.771z"/>
            <path fill="#878787" d="M8.08 45.014H5.226c.177.261.363.516.548.771H8.08v-.771z" opacity=".5"/>
            <path fill="#FFF" d="M8.08 45.785h.583v-.771h11.735v.771h.584v-.771h8.02v-.03H5.208l.02.03h2.852v.771z"/>
            <path fill="#878787" d="M8.08 45.785h.583v-.771h11.735v.771h.584v-.771h8.02v-.03H5.208l.02.03h2.852v.771z" opacity=".5"/>
            <path fill="#586BB2" d="M20.398 51.41h-9.245c.317.252.64.5.968.74h8.277v-.74z"/>
            <path fill="#878787" d="M20.398 51.41h-9.245c.317.252.64.5.968.74h8.277v-.74z" opacity=".5"/>
            <path fill="#586BB2" d="M20.982 51.409H29.003V52.409H20.982z"/>
            <path fill="#878787" d="M20.982 51.409H29.003V52.409H20.982z" opacity=".5"/>
            <path fill="#FFF" d="M20.398 52.15h.584v-.74h8.02v-.03H11.117l.037.03h9.245v.74z"/>
            <path fill="#878787" d="M20.398 52.15h.584v-.74h8.02v-.03H11.117l.037.03h9.245v.74z" opacity=".5"/>
            <path fill="#DE1B50" d="M43.307 35.106h-2.041c-.812 0-1.47-.658-1.47-1.47v-2.194l-.002.002-.064 6.714c.965 1.997 2.188 3.743 2.525 4.17.327-.418 1.523-2.152 2.477-4.136l.009-4.24c-.145.66-.731 1.154-1.434 1.154z"/>
            <path fill="#DE1B50" d="M44.731 38.513c-.985 1.986-2.161 3.659-2.405 3.95v.326h2.043v2.552H40.1V42.79h2.083v-.325c-.256-.305-1.46-1.994-2.457-3.994l-.163 17.193c1.81-.714 3.53-1.604 5.138-2.653l.03-14.497z"/>
            <path fill="#1F2B7B" d="M39.796 31.044L39.791 31.047 39.79 31.068 39.796 31.065zM42.255 42.327c-.337-.426-1.56-2.172-2.525-4.169l-.003.312c.997 2 2.201 3.689 2.457 3.994V43.138h.142v-.675c.244-.291 1.42-1.964 2.405-3.95v-.32c-.953 1.983-2.15 3.717-2.476 4.134z"/>
            <path fill="#FFF" d="M42.184 43.138v-.35h-2.083v2.553h4.268V42.79h-2.043v.349h-.142zm-.147.731h2.007v.159h-2.007v-.159zm0 .406h2.007v.158h-2.007v-.158zm0 .405h2.007v.159h-2.007v-.159zm-1.462-1.216h.969v.97h-.97v-.97zm0 1.216h.969v.159h-.97v-.159zm3.47-1.058h-2.008v-.158h2.007v.158z"/>
            <path fill="#DC1C50" d="M40.575 43.464H41.575V44.464H40.575zM42.037 43.464H44.045V44.464H42.037z"/>
            <path fill="#DC1C50" d="M42.037 43.869H44.045V44.869H42.037z"/>
            <path fill="#DC1C50" d="M42.037 44.275H44.045V45.275H42.037z"/>
            <path fill="#DC1C50" d="M42.037 44.68H44.045V45.68H42.037zM40.575 44.68H41.575V45.68H40.575z"/>
            <path fill="#FFF" d="M46.306 31.826l-.058 1.01c.536 1.217.68 2.734.803 4.095.082.894.162 1.75.34 2.428.05-.008.1-.015.151-.015.486 0 .88.394.88.88 0 .487-.394.881-.88.881s-.88-.394-.88-.88c0-.313.163-.585.409-.742-.194-.714-.277-1.598-.361-2.52-.1-1.107-.21-2.268-.51-3.277l-1.088 19.06c3.937-2.663 7.172-6.28 9.388-10.516-2.14-8.154-6.713-10.012-8.194-10.404zM39.727 38.47l.003-.312.064-6.714c-.003 0-.005.002-.007.003l-.224 24.216.164-17.193zM38.28 32.788c-.646 1.008-.693 2.114-.69 2.45.888.41.438 2.555.381 2.81-.328 1.853-.77 3.198-1.32 4.02.143.34.305.536.443.65.17.14.336.186.46.197.061-.103.169-.175.298-.175.193 0 .35.157.35.35 0 .194-.157.351-.35.351-.133 0-.244-.076-.304-.185-.184-.012-.426-.07-.672-.274-.18-.148-.335-.349-.463-.6-.211.245-.436.42-.675.525-.27.12-.506.122-.683.09-.062.057-.143.094-.234.094-.194 0-.35-.158-.35-.351 0-.194.156-.351.35-.351.168 0 .302.12.336.278.12.013.274.004.453-.078.173-.078.4-.24.647-.57-.333-.94-.404-2.387-.21-4.328.02-.197.222-1.924.886-2.394.097-.07.203-.107.312-.119.002-.485.099-1.814 1.01-2.939l-.023-.523c-1.501.475-5.234 2.267-7.437 8.586-1.013 2.903-1.705 6.752-1.705 11.882 0 2.063.463 3.889 1.128 5.449 3.197-.13 6.257-.783 9.101-1.874L38.28 32.788z"/>
            <path fill="#FFF" d="M37.381 35.522c-.024-.005-.048-.008-.07-.008-.062 0-.12.02-.18.062-.456.323-.691 1.662-.743 2.15-.195 1.948-.088 3.16.117 3.912.388-.678.801-1.8 1.13-3.658.134-.596.37-2.311-.254-2.458z"/>
            <path fill="#CCD9EF" d="M39.787 31.447c-.421.212-.788.48-1.096.81-.159.17-.294.349-.41.531l1.038 22.971c.082-.031.163-.064.244-.096l.224-24.216zM46.2 33.686c-.27-.907-.7-1.687-1.423-2.194v2.145c0 .109-.014.214-.036.316l-.01 4.24v.32l-.03 14.497c.137-.089.277-.173.411-.264l1.088-19.06z"/>
            <path fill="#586BB2" d="M37.245 35.178c-.109.012-.215.05-.312.119-.664.47-.865 2.197-.886 2.394-.194 1.94-.123 3.388.21 4.327-.247.33-.474.493-.647.571-.18.082-.333.091-.453.078.006.024.015.047.015.073 0 .103-.046.193-.117.258.177.03.413.029.683-.09.239-.106.464-.28.675-.526.128.251.282.452.463.6.246.203.488.262.672.274-.028-.05-.047-.104-.047-.165 0-.066.022-.123.053-.176-.124-.011-.29-.057-.46-.197-.138-.114-.3-.31-.443-.65.55-.822.992-2.167 1.32-4.02.057-.255.507-2.4-.382-2.81-.002-.336.045-1.442.691-2.45.117-.182.252-.361.411-.532.308-.328.675-.597 1.096-.809l.007-.003.002-.002v-.377l-.006.003c-.524.24-.978.557-1.352.958-.065.07-.124.141-.182.213-.912 1.125-1.01 2.454-1.01 2.94zm.39 2.802c-.329 1.858-.742 2.98-1.13 3.658-.205-.753-.312-1.964-.117-3.912.052-.488.287-1.827.743-2.15.06-.042.118-.062.18-.062.022 0 .046.003.07.008.624.147.388 1.862.254 2.458zM44.777 31.492c.722.507 1.152 1.287 1.423 2.194.3 1.01.41 2.17.51 3.276.084.923.167 1.807.36 2.521.097-.06.205-.103.322-.124-.179-.678-.26-1.534-.34-2.428-.125-1.361-.268-2.878-.804-4.095-.32-.727-.784-1.345-1.471-1.757v.413z"/>
            <path fill="#1F2B7B" d="M35.172 42.74c0-.026-.01-.049-.015-.073-.034-.158-.168-.278-.336-.278-.194 0-.35.157-.35.35 0 .194.156.352.35.352.09 0 .172-.037.234-.093.07-.065.117-.155.117-.258zM46.662 40.225c0 .486.394.88.88.88s.88-.394.88-.88c0-.487-.394-.88-.88-.88-.052 0-.101.006-.15.014-.117.02-.225.063-.321.124-.246.157-.41.43-.41.742zm.88-.461c.254 0 .46.206.46.46 0 .255-.206.461-.46.461s-.46-.206-.46-.46c0-.255.206-.461.46-.461z"/>
            <path fill="#CDE0EE" d="M47.081 40.225c0 .254.207.46.461.46s.46-.206.46-.46c0-.255-.206-.461-.46-.461s-.46.206-.46.46z"/>
            <path fill="#1F2B7B" d="M37.548 43.256c.06.109.17.185.304.185.193 0 .35-.157.35-.35 0-.194-.157-.351-.35-.351-.129 0-.237.072-.298.175-.03.053-.053.11-.053.176 0 .06.02.115.047.165z"/>
            <path fill="#FABCA3" d="M41.009 32.524c-.4.25-.805.49-1.213.726v.387c0 .811.658 1.47 1.47 1.47h2.041c.703 0 1.289-.495 1.434-1.154.022-.102.036-.207.036-.316v-3.638c-1.17.962-2.521 1.746-3.768 2.525z"/>
            <path fill="#F69679" d="M39.796 31.442v1.808c.408-.236.813-.476 1.213-.726 1.247-.78 2.598-1.563 3.768-2.524v-.612c-.56.366-1.228.559-1.99.559-1.08 0-2.15-.387-2.99-1.112v2.607z"/>
            <path fill="#FABCA3" d="M44.777 29.388c.877-.574 1.476-1.581 1.715-2.967.486-.17 1.196-.602 1.196-1.683 0-1.006-.617-1.181-1.094-1.167l-.003-.09c-1.521-.19-4.165-.903-6.729-3.467 0 2.1-1.525 3.406-1.69 3.542l-.001.017c-.45.025-.955.255-.955 1.165 0 1.016.629 1.46 1.108 1.65.254 1.03.784 1.853 1.472 2.447.84.725 1.91 1.112 2.991 1.112.762 0 1.43-.193 1.99-.559z"/>
            <path fill="#1F2B7B" d="M39.862 20.014c2.564 2.564 5.208 3.278 6.729 3.467l.146.018c.618.067 1.129-.488 1.01-1.097-.333-1.69-1.47-4.676-5.364-4.676-5.433 0-4.228 5.844-4.228 5.844l.017-.014c.165-.136 1.69-1.443 1.69-3.542z"/>
        </g>
    </g>
</svg>
